# Blender v2.82 (sub 7) OBJ File: ''
# www.blender.org
mtllib bugtrap_robot.mtl
o bugtrap_robot
v 0.299789 0.656438 -5.910749
v 0.607088 0.390154 0.000001
v 0.607088 0.390154 -5.910749
v -0.000011 0.000000 -5.910749
v 0.299789 0.656438 0.000001
v 0.721689 0.000000 0.000001
v 0.721689 0.000000 -5.910749
v -0.102711 0.714307 -5.910749
v 0.607088 0.390154 5.910751
v 0.721689 0.000000 5.910751
v 0.607088 -0.390155 -5.910749
v -0.472610 0.545388 -5.910749
v -0.102711 0.714307 0.000001
v 0.299789 0.656438 5.910751
v 0.607088 -0.390155 5.910751
v 0.607088 -0.390155 0.000001
v 0.299789 -0.656438 -5.910749
v -0.692411 0.203313 -5.910749
v -0.000011 0.000000 5.910751
v 0.299789 -0.656438 0.000001
v -0.102711 -0.714307 -5.910749
v -0.472610 0.545388 0.000001
v -0.692411 -0.203313 -5.910749
v -0.102711 0.714307 5.910751
v 0.299789 -0.656438 5.910751
v -0.102711 -0.714307 0.000001
v -0.472610 -0.545388 -5.910749
v -0.692411 0.203313 0.000001
v -0.472610 0.545388 5.910751
v -0.102711 -0.714307 5.910751
v -0.472610 -0.545388 0.000001
v -0.692411 -0.203313 0.000001
v -0.692411 0.203313 5.910751
v -0.472610 -0.545388 5.910751
v -0.692411 -0.203313 5.910751
vn 0.6549 0.7557 0.0000
vn 0.0000 0.0000 -1.0000
vn 0.9595 0.2818 0.0000
vn -0.4154 0.9096 0.0000
vn 0.1423 0.9898 0.0000
vn 0.0000 0.0000 1.0000
vn -0.8413 0.5406 0.0000
vn 0.6549 -0.7557 0.0000
vn 0.1423 -0.9898 0.0000
vn -1.0000 0.0000 0.0000
vn -0.4154 -0.9096 0.0000
vn -0.8413 -0.5406 0.0000
vn -0.6549 -0.7557 0.0000
vn -0.1423 -0.9898 0.0000
vn -0.9595 -0.2818 0.0000
vn -0.9595 0.2818 0.0000
vn -0.6549 0.7557 0.0000
vn -0.1423 0.9898 0.0000
vn 0.4154 -0.9096 0.0000
vn 0.8413 -0.5406 0.0000
vn 1.0000 0.0000 0.0000
vn 0.8413 0.5406 0.0000
vn 0.4154 0.9096 0.0000
usemtl material_0.001
s 1
f 1//1 2//1 3//1
f 3//2 4//2 1//2
f 6//3 3//3 2//3
f 1//2 4//2 8//2
f 5//1 9//1 2//1
f 7//2 11//2 4//2
f 10//3 2//3 9//3
f 12//4 13//4 8//4
f 4//2 18//2 12//2
f 13//5 14//5 5//5
f 9//6 14//6 19//6
f 10//6 9//6 19//6
f 12//4 22//4 13//4
f 18//7 22//7 12//7
f 13//5 24//5 14//5
f 14//6 24//6 19//6
f 15//6 19//6 25//6
f 16//8 15//8 25//8
f 16//8 25//8 20//8
f 17//9 20//9 26//9
f 23//10 28//10 18//10
f 19//6 24//6 29//6
f 20//9 30//9 26//9
f 21//11 26//11 31//11
f 21//11 31//11 27//11
f 22//4 29//4 24//4
f 28//7 29//7 22//7
f 19//6 29//6 33//6
f 32//10 33//10 28//10
f 19//6 33//6 35//6
f 34//12 35//12 31//12
f 35//10 33//10 32//10
usemtl material_1.001
f 2//13 5//13 1//13
f 3//6 4//6 7//6
f 1//14 5//14 8//14
f 10//15 2//15 6//15
f 6//15 3//15 7//15
f 8//6 12//6 4//6
f 5//14 13//14 8//14
f 9//13 14//13 5//13
f 10//16 6//16 15//16
f 6//16 7//16 16//16
f 16//16 7//16 11//16
f 4//6 17//6 11//6
f 15//2 19//2 10//2
f 15//16 6//16 16//16
f 20//17 16//17 11//17
f 17//17 20//17 11//17
f 4//6 21//6 17//6
f 18//6 23//6 4//6
f 21//18 26//18 17//18
f 27//6 21//6 4//6
f 13//19 24//19 22//19
f 18//20 22//20 28//20
f 23//6 27//6 4//6
f 30//2 19//2 25//2
f 30//18 25//18 20//18
f 23//21 28//21 32//21
f 23//22 32//22 27//22
f 30//2 34//2 19//2
f 34//23 30//23 26//23
f 31//23 34//23 26//23
f 27//22 32//22 31//22
f 28//20 29//20 33//20
f 34//2 35//2 19//2
f 32//22 35//22 31//22
