# Blender v2.93.5 OBJ File: ''
# www.blender.org
mtllib untitled2.mtl
o untitled
v -23.048298 35.008015 -12.580359
v -23.048298 30.283609 22.852713
v -23.048298 35.008015 22.852713
v -23.048298 30.283609 -12.580359
v -18.323887 35.008015 22.852713
v -18.323887 30.283609 22.852713
v -18.323887 35.008015 -12.580359
v -18.323887 30.283609 -12.580359
v 18.168283 35.008015 -12.580359
v 18.168283 30.283609 22.852713
v 18.168283 35.008015 22.852713
v 18.168283 30.283609 -12.580359
v 22.892689 35.008015 22.852713
v 22.892689 30.283609 22.852713
v 22.892689 35.008015 -12.580359
v 22.892689 30.283609 -12.580359
v -23.048298 -30.155815 -12.580359
v -23.048298 -34.880222 22.852713
v -23.048298 -30.155815 22.852713
v -23.048298 -34.880222 -12.580359
v -18.323887 -30.155815 22.852713
v -18.323887 -34.880222 22.852713
v -18.323887 -30.155815 -12.580359
v -18.323887 -34.880222 -12.580359
v 18.168283 -30.155815 -12.580359
v 18.168283 -34.880222 22.852713
v 18.168283 -30.155815 22.852713
v 18.168283 -34.880222 -12.580359
v 22.892689 -30.155815 22.852713
v 22.892689 -34.880222 22.852713
v 22.892689 -30.155815 -12.580359
v 22.892689 -34.880222 -12.580359
v -23.540936 35.433071 23.056215
v -23.540936 -35.433071 27.780626
v -23.540936 35.433071 27.780626
v -23.540936 -35.433071 23.056215
v 23.703163 35.433071 27.780626
v 23.703163 -35.433071 27.780626
v 23.703163 35.433071 23.056215
v 23.703163 -35.433071 23.056215
vn 1.0000 0.0000 0.0000
vn 0.0000 0.0000 1.0000
vn 0.0000 0.0000 -1.0000
vn 0.0000 1.0000 0.0000
vn 0.0000 -1.0000 0.0000
vn -1.0000 0.0000 0.0000
usemtl None
s off
f 4//1 1//1 2//1
f 3//1 2//1 1//1
f 2//2 5//2 3//2
f 6//3 2//3 5//3
f 1//4 5//4 7//4
f 3//5 1//5 5//5
f 1//3 8//3 4//3
f 7//2 1//2 8//2
f 8//5 2//5 4//5
f 2//5 8//5 6//5
f 7//6 8//6 5//6
f 6//6 5//6 8//6
f 12//1 9//1 10//1
f 11//1 10//1 9//1
f 13//2 10//2 14//2
f 10//2 13//2 11//2
f 13//4 9//4 11//4
f 15//5 13//5 9//5
f 16//3 9//3 15//3
f 12//2 16//2 9//2
f 16//5 10//5 12//5
f 10//5 16//5 14//5
f 16//1 13//1 14//1
f 13//1 16//1 15//1
f 20//1 17//1 18//1
f 19//1 18//1 17//1
f 18//2 21//2 19//2
f 22//3 18//3 21//3
f 17//4 21//4 23//4
f 19//5 17//5 21//5
f 17//3 24//3 20//3
f 23//2 17//2 24//2
f 24//5 18//5 20//5
f 18//5 24//5 22//5
f 23//6 24//6 21//6
f 22//6 21//6 24//6
f 25//6 26//6 27//6
f 26//6 25//6 28//6
f 29//2 26//2 30//2
f 26//2 29//2 27//2
f 31//5 29//5 25//5
f 27//5 25//5 29//5
f 31//2 25//2 32//2
f 28//2 32//2 25//2
f 30//4 32//4 26//4
f 28//4 26//4 32//4
f 31//6 32//6 29//6
f 30//6 29//6 32//6
f 36//1 33//1 34//1
f 35//1 34//1 33//1
f 34//2 37//2 35//2
f 38//3 34//3 37//3
f 33//4 37//4 39//4
f 35//5 33//5 37//5
f 33//3 40//3 36//3
f 39//2 33//2 40//2
f 40//5 34//5 36//5
f 34//5 40//5 38//5
f 39//6 40//6 37//6
f 38//6 37//6 40//6
