# Blender v2.82 (sub 7) OBJ File: ''
# www.blender.org
mtllib Twistycool_robot.mtl
o instance_0_ID3
v -3.570180 3.200224 -12.380044
v -3.570180 14.950224 12.119954
v -3.570180 3.200224 12.119954
v -3.570180 14.950224 -24.130043
v -3.570180 -39.049774 -12.380044
v -3.570180 -39.049774 -24.130043
v -3.570180 -39.049774 -24.130043
v -3.570180 -39.049774 -12.380044
v -3.570180 14.950224 -24.130043
v -3.570180 3.200224 -12.380044
v -3.570180 14.950224 12.119954
v -3.570180 3.200224 12.119954
v -3.570180 14.950224 12.119954
v -3.570180 14.950224 -24.130043
v -3.570180 3.200224 12.119954
v -3.570180 3.200224 -12.380044
v -3.570180 -39.049774 -12.380044
v -3.570180 -39.049774 -24.130043
v -15.320180 14.950224 23.869953
v -3.570180 14.950224 12.119954
v -15.320180 14.950224 -24.130043
v 39.679821 14.950224 23.869953
v 39.679821 14.950224 12.119954
v -3.570180 14.950224 -24.130043
v -3.570180 14.950224 12.119954
v -15.320180 14.950224 -24.130043
v -3.570180 14.950224 -24.130043
v 39.679821 14.950224 12.119954
v 39.679821 14.950224 23.869953
v -15.320180 14.950224 23.869953
v -15.320180 14.950224 -24.130043
v -15.320180 14.950224 23.869953
v 39.679821 14.950224 23.869953
v 39.679821 14.950224 12.119954
v -3.570180 3.200224 12.119954
v 39.679821 14.950224 12.119954
v 39.679821 3.200224 12.119954
v -3.570180 14.950224 12.119954
v -3.570180 14.950224 12.119954
v -3.570180 3.200224 12.119954
v 39.679821 14.950224 12.119954
v 39.679821 3.200224 12.119954
v 39.679821 3.200224 12.119954
v -3.570180 3.200224 -12.380044
v -15.320180 3.200224 23.869953
v -15.320180 3.200224 -12.380044
v -3.570180 3.200224 12.119954
v 39.679821 3.200224 23.869953
v 39.679821 3.200224 12.119954
v 39.679821 3.200224 12.119954
v -3.570180 3.200224 12.119954
v 39.679821 3.200224 23.869953
v -15.320180 3.200224 23.869953
v -3.570180 3.200224 -12.380044
v -15.320180 3.200224 -12.380044
v -15.320180 3.200224 -12.380044
v 39.679821 3.200224 23.869953
v -15.320180 3.200224 23.869953
v -3.570180 3.200224 -12.380044
v -15.320180 -39.049774 -12.380044
v -3.570180 -39.049774 -12.380044
v -15.320180 3.200224 -12.380044
v -15.320180 3.200224 -12.380044
v -3.570180 3.200224 -12.380044
v -15.320180 -39.049774 -12.380044
v -3.570180 -39.049774 -12.380044
v -15.320180 -39.049774 -12.380044
v -3.570180 -39.049774 -24.130043
v -15.320180 -39.049774 -12.380044
v -15.320180 -39.049774 -24.130043
v -3.570180 -39.049774 -12.380044
v -3.570180 -39.049774 -12.380044
v -3.570180 -39.049774 -24.130043
v -15.320180 -39.049774 -12.380044
v -15.320180 -39.049774 -24.130043
v -15.320180 -39.049774 -24.130043
v -15.320180 -39.049774 -24.130043
v -3.570180 14.950224 -24.130043
v -3.570180 -39.049774 -24.130043
v -15.320180 14.950224 -24.130043
v -15.320180 14.950224 -24.130043
v -15.320180 -39.049774 -24.130043
v -3.570180 14.950224 -24.130043
v -3.570180 -39.049774 -24.130043
v -15.320180 14.950224 -24.130043
v -15.320180 3.200224 23.869953
v -15.320180 14.950224 23.869953
v -15.320180 3.200224 -12.380044
v -15.320180 -39.049774 -12.380044
v -15.320180 -39.049774 -24.130043
v -15.320180 -39.049774 -24.130043
v -15.320180 14.950224 -24.130043
v -15.320180 -39.049774 -12.380044
v -15.320180 3.200224 -12.380044
v -15.320180 3.200224 23.869953
v -15.320180 14.950224 23.869953
v 39.679821 3.200224 23.869953
v -15.320180 14.950224 23.869953
v -15.320180 3.200224 23.869953
v 39.679821 14.950224 23.869953
v 39.679821 14.950224 23.869953
v 39.679821 3.200224 23.869953
v -15.320180 14.950224 23.869953
v -15.320180 3.200224 23.869953
v 39.679821 3.200224 12.119954
v 39.679821 14.950224 23.869953
v 39.679821 3.200224 23.869953
v 39.679821 14.950224 12.119954
v 39.679821 14.950224 12.119954
v 39.679821 3.200224 12.119954
v 39.679821 14.950224 23.869953
v 39.679821 3.200224 23.869953
vn 1.0000 0.0000 0.0000
vn -1.0000 0.0000 0.0000
vn 0.0000 1.0000 0.0000
vn 0.0000 -1.0000 0.0000
vn 0.0000 0.0000 -1.0000
vn 0.0000 0.0000 1.0000
usemtl material_0.016
s off
f 1//1 2//1 3//1
f 2//1 1//1 4//1
f 4//1 1//1 5//1
f 4//1 5//1 6//1
f 7//2 8//2 9//2
f 8//2 10//2 9//2
f 9//2 10//2 11//2
f 12//2 11//2 10//2
f 19//3 20//3 21//3
f 20//3 19//3 22//3
f 20//3 22//3 23//3
f 24//3 21//3 20//3
f 25//4 26//4 27//4
f 28//4 29//4 25//4
f 29//4 30//4 25//4
f 26//4 25//4 30//4
f 35//5 36//5 37//5
f 36//5 35//5 38//5
f 39//6 40//6 41//6
f 42//6 41//6 40//6
f 44//4 45//4 46//4
f 45//4 44//4 47//4
f 45//4 47//4 48//4
f 48//4 47//4 49//4
f 50//3 51//3 52//3
f 52//3 51//3 53//3
f 51//3 54//3 53//3
f 55//3 53//3 54//3
f 59//6 60//6 61//6
f 60//6 59//6 62//6
f 63//5 64//5 65//5
f 66//5 65//5 64//5
f 68//4 69//4 70//4
f 69//4 68//4 71//4
f 72//3 73//3 74//3
f 75//3 74//3 73//3
f 77//5 78//5 79//5
f 78//5 77//5 80//5
f 81//6 82//6 83//6
f 84//6 83//6 82//6
f 85//2 86//2 87//2
f 86//2 85//2 88//2
f 88//2 85//2 89//2
f 89//2 85//2 90//2
f 91//1 92//1 93//1
f 93//1 92//1 94//1
f 94//1 92//1 95//1
f 96//1 95//1 92//1
f 97//6 98//6 99//6
f 98//6 97//6 100//6
f 101//5 102//5 103//5
f 104//5 103//5 102//5
f 105//1 106//1 107//1
f 106//1 105//1 108//1
f 109//2 110//2 111//2
f 112//2 111//2 110//2
l 13 14
l 15 13
l 16 15
l 17 16
l 17 18
l 18 14
l 31 32
l 33 32
l 33 34
l 13 34
l 14 31
l 43 34
l 15 43
l 56 16
l 43 57
l 58 57
l 56 58
l 67 56
l 67 17
l 76 67
l 18 76
l 76 31
l 58 32
l 33 57
