# Blender v2.82 (sub 7) OBJ File: ''
# www.blender.org
mtllib Twistycooler_robot.mtl
o Twistycooler_robot.001
v -3.368664 13.681698 -27.691498
v -24.719303 12.661491 -15.941498
v -3.368664 13.681698 -15.941498
v -24.719303 12.661491 -27.691498
v -26.321207 46.185741 -27.691498
v -35.895096 0.364067 -27.691498
v -38.057816 45.624928 -27.691498
v -2.807846 1.945091 -27.691498
v -35.895096 0.364067 -15.941498
v -26.321207 46.185741 -15.941498
v -38.057816 45.624928 -15.941498
v -2.807846 1.945091 -15.941498
v 8.928772 2.505917 -27.691498
v 8.367950 14.242519 -27.691498
v 8.928772 2.505917 14.558502
v 8.367950 14.242519 26.308502
v 10.098114 -21.966160 26.308502
v 10.098114 -21.966160 14.558502
v -2.807846 1.945095 -27.691498
v -2.807846 1.945095 14.558502
v -3.368652 13.681698 -27.691498
v -3.368652 13.681698 26.308502
v -1.077667 -34.263584 26.308502
v 53.859650 -31.638493 26.308502
v 53.298828 -19.901890 26.308502
v 53.298828 -19.901890 14.558502
v -1.077667 -34.263584 14.558502
v 53.859650 -31.638493 14.558502
vn 0.0477 -0.9989 0.0000
vn 0.0000 0.0000 -1.0000
vn 0.0000 0.0000 1.0000
vn -0.0477 0.9989 0.0000
vn -0.9989 -0.0477 0.0000
vn 0.9989 0.0477 0.0000
usemtl Color_I02_.001
s 1
f 4//1 1//1 2//1
f 3//1 2//1 1//1
f 5//2 6//2 7//2
f 6//2 5//2 4//2
f 1//3 4//3 8//3
f 8//3 4//3 6//3
f 9//3 10//3 11//3
f 10//3 9//3 2//3
f 3//2 12//2 2//2
f 12//2 9//2 2//2
f 6//1 12//1 9//1
f 8//4 6//4 12//4
f 6//5 11//5 7//5
f 11//5 6//5 9//5
f 8//5 12//5 1//5
f 10//1 11//1 5//1
f 10//5 5//5 2//5
f 16//6 15//6 14//6
f 15//6 16//6 17//6
f 19//1 15//1 20//1
f 15//1 19//1 13//1
f 19//2 14//2 13//2
f 14//4 22//4 16//4
f 22//4 14//4 21//4
f 23//3 16//3 22//3
f 17//3 24//3 25//3
f 26//4 17//4 25//4
f 15//2 27//2 20//2
f 22//5 20//5 23//5
f 23//5 20//5 27//5
f 27//1 24//1 23//1
f 24//1 27//1 28//1
f 24//6 26//6 25//6
usemtl Color_B16_.001
f 12//6 1//6 3//6
f 11//4 5//4 7//4
f 5//6 2//6 4//6
usemtl __auto_.001
f 18//5 17//5 15//5
f 15//5 14//5 13//5
f 21//3 19//3 14//3
f 24//2 23//2 17//2
f 17//2 23//2 16//2
f 18//1 26//1 17//1
f 26//3 18//3 28//3
f 28//3 18//3 27//3
f 18//3 15//3 27//3
f 20//6 19//6 22//6
f 21//6 22//6 19//6
f 28//5 24//5 26//5
