# File produced by Open Asset Import Library (http://www.assimp.sf.net)
# (assimp v4.1.0)

mtllib Twistycool_env.mtl

# 44 vertex positions
v  457.96044921875 -10 -72.85508728027344
v  61.96044921875 -10 -74.60508728027344
v  61.96044921875 -10 -72.85508728027344
v  61.96044921875 -10 -293.8551025390625
v  457.96044921875 -10 -293.8551025390625
v  14.46044921875 -10 -293.8551025390625
v  14.46044921875 -10 -74.60508728027344
v  61.96044921875 -10 -504.8551025390625
v  457.96044921875 -24.25 -504.8551025390625
v  61.96044921875 -24.25 -504.8551025390625
v  457.96044921875 -10 -504.8551025390625
v  457.96044921875 -10 -304.1051025390625
v  457.96044921875 -24.25 -304.1051025390625
v  61.96044921875 -24.25 -304.1051025390625
v  61.96044921875 -10 -304.1051025390625
v  14.46044921875 -10 -504.8551025390625
v  14.46044921875 -10 -304.1051025390625
v  14.46044921875 -24.25 -304.1051025390625
v  14.46044921875 -24.25 -293.8551025390625
v  14.46044921875 321.25 -74.60508728027344
v  14.46044921875 321.25 -504.8551025390625
v  61.96044921875 -24.25 -72.85508728027344
v  61.96044921875 -24.25 -74.60508728027344
v  457.96044921875 -24.25 -72.85508728027344
v  457.96044921875 -24.25 -293.8551025390625
v  61.96044921875 -24.25 -293.8551025390625
v  14.46044921875 -24.25 -74.60508728027344
v  61.96044921875 321.25 -74.60508728027344
v  61.96044921875 321.25 -504.8551025390625
v  14.46044921875 -24.25 -504.8551025390625
v  457.21044921875 -24.25 -304.1051025390625
v  457.21044921875 320.75 -293.8551025390625
v  457.21044921875 -24.25 -293.8551025390625
v  457.21044921875 320.75 -304.1051025390625
v  239.3748779296875 130.3309936523438 -304.1051025390625
v  61.96044921875 320.75 -304.1051025390625
v  239.3748779296875 179.5809936523438 -304.1051025390625
v  287.8748779296875 179.5809936523438 -304.1051025390625
v  287.8748779296875 130.3309936523438 -304.1051025390625
v  61.96044921875 320.75 -293.8551025390625
v  287.8748779296875 130.3309936523438 -293.8551025390625
v  287.8748779296875 179.5809936523438 -293.8551025390625
v  239.3748779296875 179.5809936523438 -293.8551025390625
v  239.3748779296875 130.3309936523438 -293.8551025390625

# 0 UV coordinates

# 7 vertex normals
vn 0 1 0
vn -0 -1 0
vn 0 0 0
vn 0 0 -1
vn 1 0 0
vn 0 0 1
vn -1 0 -0

# Mesh '$ColladaAutoName$_0' with 5 faces
g $ColladaAutoName$_0
usemtl material_0
f  1//1 2//1 3//1
f  2//1 1//1 4//1
f  4//1 1//1 5//1
f  2//1 6//1 7//1
f  6//1 2//1 4//1

# Mesh '$ColladaAutoName$_0' with 5 faces
g $ColladaAutoName$_0
usemtl material_1
f  4//2 2//2 6//2
f  7//2 6//2 2//2
f  5//2 1//2 4//2
f  4//2 1//2 2//2
f  3//2 2//2 1//2

# Mesh '$ColladaAutoName$_0' with 7 faces
g $ColladaAutoName$_0
usemtl edge_color49126184255
l  5 1
l  4 5
l  4 6
l  7 6
l  2 7
l  3 2
l  1 3

# Mesh '$ColladaAutoName$_0' with 6 faces
g $ColladaAutoName$_0
usemtl material_0
f  8//4 9//4 10//4
f  9//4 8//4 11//4
f  9//5 12//5 13//5
f  12//5 9//5 11//5
f  12//6 14//6 13//6
f  14//6 12//6 15//6

# Mesh '$ColladaAutoName$_0' with 6 faces
g $ColladaAutoName$_0
usemtl material_2
f  11//6 8//6 9//6
f  10//6 9//6 8//6
f  11//7 9//7 12//7
f  13//7 12//7 9//7
f  15//4 12//4 14//4
f  13//4 14//4 12//4

# Mesh '$ColladaAutoName$_0' with 10 faces
g $ColladaAutoName$_0
usemtl edge_color49126184255
l  9 10
l  10 8
l  11 8
l  9 11
l  13 9
l  12 11
l  13 12
l  14 13
l  15 12
l  14 15

# Mesh '$ColladaAutoName$_0' with 4 faces
g $ColladaAutoName$_0
usemtl material_0
f  15//1 16//1 17//1
f  16//1 15//1 8//1
f  8//1 15//1 12//1
f  8//1 12//1 11//1

# Mesh '$ColladaAutoName$_0' with 4 faces
g $ColladaAutoName$_0
usemtl material_1
f  11//2 12//2 8//2
f  12//2 15//2 8//2
f  8//2 15//2 16//2
f  17//2 16//2 15//2

# Mesh '$ColladaAutoName$_0' with 6 faces
g $ColladaAutoName$_0
usemtl edge_color49126184255
l  15 12
l  12 11
l  11 8
l  8 16
l  17 16
l  15 17

# Mesh '$ColladaAutoName$_0' with 8 faces
g $ColladaAutoName$_0
usemtl material_0
f  15//6 18//6 14//6
f  18//6 15//6 17//6
f  18//5 6//5 19//5
f  6//5 20//5 7//5
f  20//5 6//5 21//5
f  21//5 6//5 17//5
f  17//5 6//5 18//5
f  21//5 17//5 16//5

# Mesh '$ColladaAutoName$_0' with 8 faces
g $ColladaAutoName$_0
usemtl material_3
f  17//4 15//4 18//4
f  14//4 18//4 15//4
f  16//7 17//7 21//7
f  18//7 6//7 17//7
f  17//7 6//7 21//7
f  21//7 6//7 20//7
f  7//7 20//7 6//7
f  19//7 6//7 18//7

# Mesh '$ColladaAutoName$_0' with 11 faces
g $ColladaAutoName$_0
usemtl edge_color49126184255
l  14 18
l  14 15
l  15 17
l  18 17
l  16 21
l  21 20
l  20 7
l  7 6
l  19 6
l  19 18
l  17 16

# Mesh '$ColladaAutoName$_0' with 8 faces
g $ColladaAutoName$_0
usemtl material_0
f  2//7 22//7 3//7
f  22//7 2//7 23//7
f  1//6 22//6 24//6
f  22//6 1//6 3//6
f  25//5 1//5 24//5
f  1//5 25//5 5//5
f  4//4 25//4 26//4
f  25//4 4//4 5//4

# Mesh '$ColladaAutoName$_0' with 8 faces
g $ColladaAutoName$_0
usemtl material_2
f  23//5 2//5 22//5
f  3//5 22//5 2//5
f  3//4 1//4 22//4
f  24//4 22//4 1//4
f  5//7 25//7 1//7
f  24//7 1//7 25//7
f  5//6 4//6 25//6
f  26//6 25//6 4//6

# Mesh '$ColladaAutoName$_0' with 13 faces
g $ColladaAutoName$_0
usemtl edge_color49126184255
l  22 23
l  22 3
l  3 2
l  23 2
l  24 22
l  24 1
l  1 3
l  25 24
l  25 5
l  5 1
l  26 25
l  26 4
l  4 5

# Mesh '$ColladaAutoName$_0' with 7 faces
g $ColladaAutoName$_0
usemtl material_0
f  6//4 26//4 19//4
f  26//4 6//4 4//4
f  26//2 27//2 19//2
f  27//2 26//2 23//2
f  23//2 26//2 25//2
f  23//2 25//2 22//2
f  22//2 25//2 24//2

# Mesh '$ColladaAutoName$_0' with 7 faces
g $ColladaAutoName$_0
usemtl material_4
f  4//6 6//6 26//6
f  19//6 26//6 6//6
f  24//1 25//1 22//1
f  22//1 25//1 23//1
f  25//1 26//1 23//1
f  23//1 26//1 27//1
f  19//1 27//1 26//1

# Mesh '$ColladaAutoName$_0' with 10 faces
g $ColladaAutoName$_0
usemtl edge_color49126184255
l  26 19
l  19 6
l  4 6
l  26 4
l  25 24
l  24 22
l  22 23
l  23 27
l  27 19
l  26 25

# Mesh '$ColladaAutoName$_0' with 2 faces
g $ColladaAutoName$_0
usemtl material_0
f  20//4 2//4 7//4
f  2//4 20//4 28//4

# Mesh '$ColladaAutoName$_0' with 2 faces
g $ColladaAutoName$_0
usemtl material_4
f  28//6 20//6 2//6
f  7//6 2//6 20//6

# Mesh '$ColladaAutoName$_0' with 4 faces
g $ColladaAutoName$_0
usemtl edge_color49126184255
l  28 2
l  2 7
l  20 7
l  28 20

# Mesh '$ColladaAutoName$_0' with 4 faces
g $ColladaAutoName$_0
usemtl material_0
f  21//4 8//4 16//4
f  8//4 21//4 29//4
f  28//1 21//1 20//1
f  21//1 28//1 29//1

# Mesh '$ColladaAutoName$_0' with 4 faces
g $ColladaAutoName$_0
usemtl material_2
f  29//6 21//6 8//6
f  16//6 8//6 21//6
f  29//2 28//2 21//2
f  20//2 21//2 28//2

# Mesh '$ColladaAutoName$_0' with 7 faces
g $ColladaAutoName$_0
usemtl edge_color49126184255
l  8 29
l  8 16
l  16 21
l  29 21
l  29 28
l  21 20
l  28 20

# Mesh '$ColladaAutoName$_0' with 2 faces
g $ColladaAutoName$_0
usemtl material_0
f  14//2 19//2 18//2
f  19//2 14//2 26//2

# Mesh '$ColladaAutoName$_0' with 2 faces
g $ColladaAutoName$_0
usemtl material_2
f  26//1 14//1 19//1
f  18//1 19//1 14//1

# Mesh '$ColladaAutoName$_0' with 4 faces
g $ColladaAutoName$_0
usemtl edge_color49126184255
l  26 14
l  26 19
l  19 18
l  14 18

# Mesh '$ColladaAutoName$_0' with 4 faces
g $ColladaAutoName$_0
usemtl material_0
f  10//2 18//2 30//2
f  18//2 10//2 14//2
f  14//2 10//2 9//2
f  14//2 9//2 13//2

# Mesh '$ColladaAutoName$_0' with 4 faces
g $ColladaAutoName$_0
usemtl material_4
f  13//1 9//1 14//1
f  9//1 10//1 14//1
f  14//1 10//1 18//1
f  30//1 18//1 10//1

# Mesh '$ColladaAutoName$_0' with 6 faces
g $ColladaAutoName$_0
usemtl edge_color49126184255
l  14 13
l  14 18
l  18 30
l  10 30
l  9 10
l  13 9

# Mesh '$ColladaAutoName$_0' with 6 faces
g $ColladaAutoName$_0
usemtl material_0
f  26//5 2//5 23//5
f  2//5 26//5 28//5
f  28//5 26//5 29//5
f  29//5 26//5 14//5
f  29//5 14//5 10//5
f  29//5 10//5 8//5

# Mesh '$ColladaAutoName$_0' with 6 faces
g $ColladaAutoName$_0
usemtl material_3
f  8//7 10//7 29//7
f  10//7 14//7 29//7
f  14//7 26//7 29//7
f  29//7 26//7 28//7
f  28//7 26//7 2//7
f  23//7 2//7 26//7

# Mesh '$ColladaAutoName$_0' with 8 faces
g $ColladaAutoName$_0
usemtl edge_color49126184255
l  10 8
l  8 29
l  29 28
l  28 2
l  23 2
l  23 26
l  26 14
l  14 10

# Mesh '$ColladaAutoName$_0' with 1 faces
g $ColladaAutoName$_0
usemtl edge_color49126184255
l  30 16

# Mesh '$ColladaAutoName$_0' with 1 faces
g $ColladaAutoName$_0
usemtl edge_color49126184255
l  27 7

# Mesh 'ID2' with 48 faces
g ID2
usemtl material_0
f  31//5 32//5 33//5
f  32//5 31//5 34//5
f  34//7 31//7 32//7
f  33//7 32//7 31//7
f  31//2 26//2 14//2
f  26//2 31//2 33//2
f  33//1 31//1 26//1
f  14//1 26//1 31//1
f  14//4 35//4 31//4
f  35//4 14//4 36//4
f  35//4 36//4 37//4
f  37//4 36//4 38//4
f  31//4 39//4 34//4
f  39//4 31//4 35//4
f  34//4 39//4 38//4
f  34//4 38//4 36//4
f  36//6 38//6 34//6
f  38//6 39//6 34//6
f  35//6 31//6 39//6
f  34//6 39//6 31//6
f  38//6 36//6 37//6
f  37//6 36//6 35//6
f  36//6 14//6 35//6
f  31//6 35//6 14//6
f  32//1 36//1 40//1
f  36//1 32//1 34//1
f  34//2 32//2 36//2
f  40//2 36//2 32//2
f  33//6 41//6 26//6
f  41//6 33//6 32//6
f  41//6 32//6 42//6
f  42//6 32//6 43//6
f  26//6 44//6 40//6
f  44//6 26//6 41//6
f  40//6 44//6 43//6
f  40//6 43//6 32//6
f  32//4 43//4 40//4
f  43//4 44//4 40//4
f  41//4 26//4 44//4
f  40//4 44//4 26//4
f  43//4 32//4 42//4
f  42//4 32//4 41//4
f  32//4 33//4 41//4
f  26//4 41//4 33//4
f  36//7 26//7 40//7
f  26//7 36//7 14//7
f  14//5 36//5 26//5
f  40//5 26//5 36//5

# Mesh 'ID2' with 20 faces
g ID2
usemtl edge_color49126184255
l  33 31
l  31 34
l  32 34
l  33 32
l  14 26
l  31 14
l  26 33
l  14 36
l  34 36
l  35 37
l  39 35
l  38 39
l  37 38
l  36 40
l  40 32
l  26 40
l  44 43
l  43 42
l  42 41
l  41 44

# Mesh 'ID2' with 16 faces
g ID2
usemtl material_0
f  35//5 43//5 44//5
f  43//5 35//5 37//5
f  37//7 35//7 43//7
f  44//7 43//7 35//7
f  41//1 35//1 44//1
f  35//1 41//1 39//1
f  39//2 41//2 35//2
f  44//2 35//2 41//2
f  38//2 43//2 37//2
f  43//2 38//2 42//2
f  42//1 38//1 43//1
f  37//1 43//1 38//1
f  38//7 41//7 42//7
f  41//7 38//7 39//7
f  39//5 38//5 41//5
f  42//5 41//5 38//5

# Mesh 'ID2' with 12 faces
g ID2
usemtl edge_color49126184255
l  44 43
l  44 35
l  35 37
l  43 37
l  41 44
l  41 39
l  39 35
l  43 42
l  37 38
l  42 38
l  42 41
l  38 39

